<?xml version="1.0" encoding="UTF-8"?>
<svg width="30px" height="30px" viewBox="0 0 30 30" version="1.1" xmlns="http://www.w3.org/2000/svg" xmlns:xlink="http://www.w3.org/1999/xlink">
    <!-- Generator: Sketch 51.3 (57544) - http://www.bohemiancoding.com/sketch -->
    <title>Icon/30/Latter/inactive</title>
    <desc>Created with Sketch.</desc>
    <defs></defs>
    <g id="Icon/30/Latter/inactive" stroke="none" stroke-width="1" fill="none" fill-rule="evenodd">
        <path d="M2.5,13.7474982 L2.5,27.5 L27.5,27.5 L27.5,13.7474982 L16.0815152,21.0879528 C15.4227,21.5114768 14.5773,21.5114768 13.9184848,21.0879528 L2.5,13.7474982 Z M1.7703788,11.4952435 L14.7296212,19.8261851 C14.894325,19.9320661 15.105675,19.9320661 15.2703788,19.8261851 L28.2296212,11.4952435 C28.4619062,11.3459174 28.7712632,11.4131689 28.9205892,11.645454 C28.9724348,11.7261026 29,11.8199569 29,11.9158327 L29,28.5 C29,28.7761424 28.7761424,29 28.5,29 L1.5,29 C1.22385763,29 1,28.7761424 1,28.5 L1,11.9158327 C1,11.6396904 1.22385763,11.4158327 1.5,11.4158327 C1.59587581,11.4158327 1.68973013,11.4433979 1.7703788,11.4952435 Z" id="Rectangle-23" fill="#99A2AA" fill-rule="nonzero"></path>
        <path d="M2.5,11.7719268 L2.5,27.5 L27.5,27.5 L27.5,11.7719268 L15,2.84335541 L2.5,11.7719268 Z M1.2093809,10.8504422 L14.4187618,1.41517014 C14.7664593,1.16681477 15.2335407,1.16681477 15.5812382,1.41517014 L28.7906191,10.8504422 C28.9220172,10.944298 29,11.0958334 29,11.2573089 L29,28.5 C29,28.7761424 28.7761424,29 28.5,29 L1.5,29 C1.22385763,29 1,28.7761424 1,28.5 L1,11.2573089 C1,11.0958334 1.07798284,10.944298 1.2093809,10.8504422 Z" id="Rectangle-23" fill="#99A2AA" fill-rule="nonzero"></path>
        <polygon id="Path-16" fill="#99A2AA" fill-rule="nonzero" points="2.50172355 28.5574706 1.49827645 27.4425294 11.4982765 18.4425294 12.5017235 19.5574706"></polygon>
        <polygon id="Path-17" fill="#99A2AA" fill-rule="nonzero" points="28.5017235 27.4425294 27.4982765 28.5574706 17.4982765 19.5574706 18.5017235 18.4425294"></polygon>
    </g>
</svg>