<?xml version="1.0" encoding="UTF-8"?>
<svg width="30px" height="30px" viewBox="0 0 30 30" version="1.1" xmlns="http://www.w3.org/2000/svg" xmlns:xlink="http://www.w3.org/1999/xlink">
    <!-- Generator: Sketch 51.3 (57544) - http://www.bohemiancoding.com/sketch -->
    <title>Icon/30/Parcel/inactive</title>
    <desc>Created with Sketch.</desc>
    <defs></defs>
    <g id="Icon/30/Parcel/inactive" stroke="none" stroke-width="1" fill="none" fill-rule="evenodd">
        <path d="M21.25,9.98099706 L8.74978609,4.24382599 C8.37332935,4.07104521 8.20821737,3.62580023 8.38099815,3.24934349 C8.55377893,2.87288675 8.99902391,2.70777476 9.37548065,2.88055554 L22.75,9.01900294 L22.75,15 C22.75,15.4142136 22.4142136,15.75 22,15.75 C21.5857864,15.75 21.25,15.4142136 21.25,15 L21.25,9.98099706 Z" id="Path-19" fill="#99A2AA" fill-rule="nonzero"></path>
        <path d="M2.5,8.27480852 L2.5,23.0109058 L15,28.3680486 L27.5,23.0109058 L27.5,8.27480852 L15.7878386,13.2943063 C15.284741,13.5099195 14.715259,13.5099195 14.2121614,13.2943063 L2.5,8.27480852 Z M1.69695965,6.29869699 L14.8030404,11.9155887 C14.9288147,11.969492 15.0711853,11.969492 15.1969596,11.9155887 L28.3030404,6.29869699 C28.5568552,6.18991918 28.8507947,6.30749497 28.9595725,6.56130986 C28.9862461,6.62354828 29,6.69055612 29,6.75826951 L29,23.6703019 C29,23.870316 28.8808016,24.051085 28.6969596,24.1298744 L15.1969596,29.9155887 C15.0711853,29.969492 14.9288147,29.969492 14.8030404,29.9155887 L1.30304035,24.1298744 C1.11919843,24.051085 1,23.870316 1,23.6703019 L1,6.75826951 C1,6.48212713 1.22385763,6.25826951 1.5,6.25826951 C1.56771339,6.25826951 1.63472123,6.27202338 1.69695965,6.29869699 Z" id="Rectangle" fill="#99A2AA" fill-rule="nonzero"></path>
        <path d="M2.5,6.98909424 L2.5,23.0109058 L15,28.3680486 L27.5,23.0109058 L27.5,6.98909424 L15,1.63195138 L2.5,6.98909424 Z M1.30304035,5.87012556 L14.8030404,0.0844112783 C14.9288147,0.0305079649 15.0711853,0.0305079649 15.1969596,0.0844112783 L28.6969596,5.87012556 C28.8808016,5.94891496 29,6.12968402 29,6.32969808 L29,23.6703019 C29,23.870316 28.8808016,24.051085 28.6969596,24.1298744 L15.1969596,29.9155887 C15.0711853,29.969492 14.9288147,29.969492 14.8030404,29.9155887 L1.30304035,24.1298744 C1.11919843,24.051085 1,23.870316 1,23.6703019 L1,6.32969808 C1,6.12968402 1.11919843,5.94891496 1.30304035,5.87012556 Z" id="Rectangle" fill="#99A2AA" fill-rule="nonzero"></path>
        <polygon id="Path-18" fill="#99A2AA" fill-rule="nonzero" points="14.25 12 15.75 12 15.75 29 14.25 29"></polygon>
    </g>
</svg>